# xmcd
#
# Track frame offsets:
#	150
#	15710
#	25726
#	32827
#	44785
#	51810
#	59208
#	66161
#	75917
#	79060
#	98915
#	101636
#	103656
#	119890
#	147893
#	162527
#	181670
#	216840
#	220091
#	236242
#	241696
#	244936
#	256835
#	258941
#	261427
#	265411
#	268878
#	270797
#	272522
#	276019
#	278883
#	281594
#	283974
#	286329
#	288302
#	290628
#
# Disc length: 4414 seconds
#
# Revision: 1
# Processed by: cddbd v1.5.1PL0 Copyright (c) Steve Scherf et al.
# Submitted via: CDex 1.50Beta5
#
DISCID=3b113c24
DTITLE=猛毒 - ザ・ベスト4-海賊盤-
DYEAR=1900
DGENRE=
TTITLE0=まだまだ地井武男
TTITLE1=精力的な巨大浣腸
TTITLE2=たんすをかついだアホだぬき
TTITLE3=真説・正味な話が横山やすし
TTITLE4=はたらくくるま
TTITLE5=志賀勝さる
TTITLE6=稲川メッシュ
TTITLE7=ニイヌマッケンジーの鳩がでますよ
TTITLE8=新栄電機
TTITLE9=山下清もつらいよ!
TTITLE10=2×3=六輔
TTITLE11=竜雷太
TTITLE12=なごや
TTITLE13=ギボ愛子ゲボ
TTITLE14=福留デストロイ
TTITLE15=スプーンみたいな小川君
TTITLE16=別所
TTITLE17=トルコンドー〜トルコの殺し屋〜
TTITLE18=笑点・大喜利 Re-Mix
TTITLE19=中尾彬
TTITLE20=吉村作治
TTITLE21=カッパの黄桜
TTITLE22=カッパの黄桜
TTITLE23=松鶴家千とせ
TTITLE24=鉄人
TTITLE25=クロードチアリ
TTITLE26=関取
TTITLE27=長作
TTITLE28=あぁ日本の社長
TTITLE29=マチャアキ海を行く!!
TTITLE30=青空球児・好児
TTITLE31=ダン池田
TTITLE32=波平DEATH
TTITLE33=どっきりカメラすべら〜ず
TTITLE34=セントルイス
TTITLE35=ガッツ組曲「石松伝説」
EXTD=
EXTT0=
EXTT1=
EXTT2=
EXTT3=
EXTT4=
EXTT5=
EXTT6=
EXTT7=
EXTT8=
EXTT9=
EXTT10=
EXTT11=
EXTT12=
EXTT13=
EXTT14=
EXTT15=
EXTT16=
EXTT17=
EXTT18=
EXTT19=
EXTT20=
EXTT21=
EXTT22=
EXTT23=
EXTT24=
EXTT25=
EXTT26=
EXTT27=
EXTT28=
EXTT29=
EXTT30=
EXTT31=
EXTT32=
EXTT33=
EXTT34=
EXTT35=
PLAYORDER=
